<?xml version="1.0" encoding="utf-8"?>
<!-- Generator: Adobe Illustrator 25.2.3, SVG Export Plug-In . SVG Version: 6.00 Build 0)  -->
<svg version="1.1" id="圖層_1" xmlns="http://www.w3.org/2000/svg" x="0px"
     y="0px"
     viewBox="0 0 35 35" style="enable-background:new 0 0 35 35;" xml:space="preserve">
<style type="text/css">
	.st0{fill:#9A9DA0;}
</style>
    <g id="Group_481" transform="translate(-359.225 -119.111)">
	<path id="Path_325" class="st0" d="M376.7,147.7h-5.8c-1.3,0.1-2.3-0.9-2.4-2.2c0-0.1,0-0.1,0-0.2c0-2.4,0-4.7,0-7.1
		c0-0.8,0.3-1.5,0.9-1.9c0.1-0.1,0.1-0.2,0.1-0.3c-0.6-3.3,1.2-6.6,4.3-8c2.4-1.1,5.2-0.7,7.2,1c1.5,1.2,2.5,3,2.8,4.9
		c0.1,0.7,0.1,1.4,0,2.2c0,0.1,0,0.2,0.1,0.2c0.6,0.4,1,1.1,0.9,1.9c0,2.4,0,4.7,0,7.1c0.1,1.3-0.9,2.3-2.1,2.4c-0.1,0-0.2,0-0.2,0
		L376.7,147.7z M376.7,135.9h1.5c0.9,0,1.8,0,2.8,0c0.2,0,0.3,0,0.3-0.2c0-0.3,0.1-0.5,0.1-0.8c0-1.4-0.6-2.7-1.6-3.6
		c-1.4-1.3-3.6-1.5-5.2-0.5c-1.7,1-2.6,2.9-2.2,4.9c0,0.2,0.1,0.3,0.3,0.3C373.9,135.9,375.3,135.9,376.7,135.9z M375.7,143.5
		c0,0.3,0,0.6,0,1c0.1,0.5,0.6,0.8,1.1,0.7c0.5-0.1,0.9-0.5,0.9-1c0-0.4,0-0.9,0-1.3c0-0.1,0.1-0.3,0.2-0.3c0.6-0.4,1-1.2,0.9-2
		c-0.1-1.1-1.2-1.9-2.3-1.8c-0.7,0.1-1.3,0.5-1.6,1.2c-0.4,0.8-0.2,1.7,0.5,2.3c0.3,0.2,0.5,0.6,0.4,1
		C375.7,143.4,375.7,143.4,375.7,143.5L375.7,143.5z"/>
</g>
</svg>
