<svg id="圖層_1" data-name="圖層 1" xmlns="http://www.w3.org/2000/svg" viewBox="0 0 25 25"><defs><style>.cls-1,.cls-3{fill:none;stroke-miterlimit:10;}.cls-1,.cls-2,.cls-3{stroke:#9a9da0;}.cls-1{stroke-width:2.32px;}.cls-2{fill:#9a9da0;stroke-linecap:round;stroke-linejoin:round;stroke-width:1.24px;}.cls-3{stroke-width:1.2px;}</style></defs><path class="cls-1" d="M12.5,20.11a7.61,7.61,0,1,1,7.61-7.61A7.61,7.61,0,0,1,12.5,20.11Z"/><polygon class="cls-2" points="13.93 4.59 11.07 4.59 11.35 1.73 13.65 1.73 13.93 4.59"/><polygon class="cls-2" points="11.07 20.41 13.93 20.41 13.65 23.27 11.35 23.27 11.07 20.41"/><polygon class="cls-2" points="20.41 13.93 20.41 11.07 23.27 11.35 23.27 13.65 20.41 13.93"/><polygon class="cls-2" points="4.59 11.07 4.59 13.93 1.73 13.65 1.73 11.35 4.59 11.07"/><polygon class="cls-2" points="19.1 7.92 17.08 5.9 19.3 4.07 20.93 5.7 19.1 7.92"/><polygon class="cls-2" points="5.9 17.08 7.92 19.1 5.7 20.93 4.07 19.3 5.9 17.08"/><polygon class="cls-2" points="17.08 19.1 19.1 17.08 20.93 19.3 19.3 20.93 17.08 19.1"/><polygon class="cls-2" points="7.92 5.9 5.9 7.92 4.07 5.7 5.7 4.07 7.92 5.9"/><path class="cls-3" d="M12.5,17A4.46,4.46,0,1,1,17,12.5,4.45,4.45,0,0,1,12.5,17Z"/></svg>