<svg id="圖層_1" data-name="圖層 1" xmlns="http://www.w3.org/2000/svg" viewBox="0 0 25 25"><defs><style>.cls-1{fill:#9a9da0;}</style></defs><path class="cls-1" d="M23.92,10.48,20.59,10a8.49,8.49,0,0,0-.75-1.78l1.94-2.71a.59.59,0,0,0-.06-.76L19.94,3a.59.59,0,0,0-.77-.05l-2.69,2a8.48,8.48,0,0,0-1.79-.72L14.15.91a.6.6,0,0,0-.58-.49H11.05a.58.58,0,0,0-.58.5L10,4.24a8.25,8.25,0,0,0-1.62.67l-2.71-2A.61.61,0,0,0,4.88,3L3.1,4.75A.59.59,0,0,0,3,5.51L5,8.24A8.67,8.67,0,0,0,4.23,10l-3.33.5a.59.59,0,0,0-.5.58v2.53a.58.58,0,0,0,.49.57l3.3.56a8.73,8.73,0,0,0,.7,1.76l-2,2.71A.58.58,0,0,0,3,20l1.79,1.79a.58.58,0,0,0,.75.06l2.73-1.94a9,9,0,0,0,1.74.75l.51,3.33a.59.59,0,0,0,.58.5h2.52a.59.59,0,0,0,.58-.49l.56-3.31a8.19,8.19,0,0,0,1.91-.79l2.71,1.95a.58.58,0,0,0,.75-.06L21.87,20a.59.59,0,0,0,.05-.77l-2-2.69a8.67,8.67,0,0,0,.71-1.79l3.3-.55a.58.58,0,0,0,.49-.58V11.06A.59.59,0,0,0,23.92,10.48ZM12.41,15.87a3.45,3.45,0,1,1,3.44-3.44A3.44,3.44,0,0,1,12.41,15.87Z"/></svg>