<svg id="圖層_1" data-name="圖層 1" xmlns="http://www.w3.org/2000/svg" viewBox="0 0 25 25"><defs><style>.cls-1,.cls-2{fill:none;stroke:#9a9da0;stroke-miterlimit:10;}.cls-1{stroke-width:4.04px;}.cls-2{stroke-width:6.16px;}</style></defs><path class="cls-1" d="M17,20a6.15,6.15,0,0,1-.75.44,8.19,8.19,0,1,1-5.9-15.17,5.63,5.63,0,0,1,.62-.14"/><path class="cls-1" d="M19.33,8.82c.12.19.23.37.33.56a8.22,8.22,0,0,1-.57,8.6A7.07,7.07,0,0,1,18.18,19"/><path class="cls-2" d="M12.43,5c.24,0,.49,0,.73,0A8.15,8.15,0,0,1,17.63,6.9a8.94,8.94,0,0,1,.71.66"/></svg>