<svg id="圖層_1" data-name="圖層 1" xmlns="http://www.w3.org/2000/svg" xmlns:xlink="http://www.w3.org/1999/xlink" viewBox="0 0 25 25"><defs><style>.cls-1{fill:none;}.cls-2{fill:#9a9da0;}.cls-3{clip-path:url(#clip-path);}</style><clipPath id="clip-path"><path class="cls-1" d="M13.22,2.9v9.15l0,0h9.16A9.21,9.21,0,0,0,13.22,2.9Z"/></clipPath></defs><path class="cls-2" d="M11.82,13.55V4.09a9.53,9.53,0,1,0,6.8,16.19Z"/><path class="cls-2" d="M14,13.23l6.89,6.82a9.68,9.68,0,0,0,2.79-6.8v0Z"/><g class="cls-3"><rect class="cls-2" x="2.2" y="4.62" width="18.83" height="1.43" transform="translate(-0.34 9.85) rotate(-45.35)"/><rect class="cls-2" x="4.28" y="6.45" width="18.83" height="1.43" transform="translate(-1.03 11.87) rotate(-45.35)"/><rect class="cls-2" x="6.35" y="8.54" width="18.83" height="1.43" transform="translate(-1.9 13.96) rotate(-45.35)"/><rect class="cls-2" x="8.42" y="10.63" width="18.83" height="1.43" transform="translate(-2.77 16.06) rotate(-45.35)"/><rect class="cls-2" x="10.49" y="12.84" width="18.83" height="1.43" transform="translate(-3.73 18.19) rotate(-45.35)"/></g></svg>