<svg id="圖層_1" data-name="圖層 1" xmlns="http://www.w3.org/2000/svg" viewBox="0 0 25 25"><defs><style>.cls-1{fill:none;stroke-miterlimit:10;stroke-width:2.5px;}.cls-1,.cls-2{stroke:#9a9da0;}.cls-2{fill:#9a9da0;stroke-linecap:round;stroke-linejoin:round;stroke-width:1.48px;}</style></defs><path class="cls-1" d="M12.5,20.17a7.67,7.67,0,1,1,7.67-7.67A7.66,7.66,0,0,1,12.5,20.17Z"/><polygon class="cls-2" points="13.94 4.53 11.06 4.53 11.34 1.64 13.66 1.64 13.94 4.53"/><polygon class="cls-2" points="11.06 20.47 13.94 20.47 13.66 23.36 11.34 23.36 11.06 20.47"/><polygon class="cls-2" points="20.47 13.94 20.47 11.06 23.36 11.34 23.36 13.66 20.47 13.94"/><polygon class="cls-2" points="4.53 11.06 4.53 13.94 1.64 13.66 1.64 11.34 4.53 11.06"/><polygon class="cls-2" points="19.16 7.88 17.12 5.84 19.36 4 21 5.64 19.16 7.88"/><polygon class="cls-2" points="5.84 17.12 7.88 19.16 5.64 21 4 19.36 5.84 17.12"/><polygon class="cls-2" points="17.12 19.16 19.16 17.12 21 19.36 19.36 21 17.12 19.16"/><polygon class="cls-2" points="7.88 5.84 5.84 7.88 4 5.64 5.64 4 7.88 5.84"/></svg>