<svg id="圖層_1" data-name="圖層 1" xmlns="http://www.w3.org/2000/svg" viewBox="0 0 136.06 68.03"><defs><style>.cls-1{fill:#575757;}.cls-1,.cls-2,.cls-3{fill-rule:evenodd;}.cls-2{fill:none;}.cls-3{fill:#e96d00;}</style></defs><path class="cls-1" d="M38,41a.54.54,0,0,0-.54.53V44.6a.41.41,0,0,1-.43.43H33.85a.43.43,0,0,0-.43.43.44.44,0,0,0,.43.43h3.57a1.1,1.1,0,0,0,1.15-1.15V41.55A.54.54,0,0,0,38,41"/><path class="cls-1" d="M58.49,41.11h-4.2a1.1,1.1,0,0,0-1.15,1.15v2.48a1.1,1.1,0,0,0,1.15,1.15h4.2a1.1,1.1,0,0,0,1.14-1.15V42.26a1.09,1.09,0,0,0-1.14-1.15m-.24,4H54.53a.4.4,0,0,1-.43-.43V42.35a.41.41,0,0,1,.43-.43h3.72a.41.41,0,0,1,.43.43v2.29a.4.4,0,0,1-.43.43"/><path class="cls-1" d="M96.89,41.92h4.7a.41.41,0,1,0,0-.81H96.65a1.1,1.1,0,0,0-1.15,1.15v2.48a1.1,1.1,0,0,0,1.15,1.15h4.94a.41.41,0,0,0,0-.82h-4.7a.4.4,0,0,1-.43-.43V42.35a.41.41,0,0,1,.43-.43"/><path class="cls-1" d="M71.84,41a.54.54,0,0,0-.54.53v3.89a.54.54,0,0,0,1.08,0V41.55a.54.54,0,0,0-.54-.53"/><path class="cls-1" d="M92.31,41a.54.54,0,0,0-.54.53v3.89a.54.54,0,1,0,1.07,0V41.55a.53.53,0,0,0-.53-.53"/><path class="cls-1" d="M89.22,41.11H83.56a.42.42,0,0,0,0,.84h2.29v3.49a.54.54,0,1,0,1.07,0V42h2.3a.42.42,0,0,0,0-.84"/><path class="cls-1" d="M31.14,41.11H25.48a.42.42,0,0,0,0,.84h2.29v3.49a.54.54,0,1,0,1.08,0V42h2.29a.42.42,0,1,0,0-.84"/><path class="cls-1" d="M80.05,43.09h-3.5c-.34,0-.6-.12-.6-.58s.26-.59.6-.59H81a.41.41,0,0,0,0-.81H76.42c-.79,0-1.43.3-1.43,1.4s.64,1.39,1.43,1.39h3.51a.53.53,0,0,1,.6.59c0,.46-.27.58-.6.58H75.5a.41.41,0,0,0,0,.82h4.55c.79,0,1.43-.3,1.43-1.4s-.64-1.4-1.43-1.4"/><path class="cls-1" d="M109.43,43.09h-3.51c-.33,0-.6-.12-.6-.58a.53.53,0,0,1,.6-.59h4.42a.41.41,0,0,0,0-.81H105.8c-.79,0-1.43.3-1.43,1.4s.64,1.39,1.43,1.39h3.51a.53.53,0,0,1,.6.59c0,.46-.27.58-.6.58h-4.43a.41.41,0,0,0,0,.82h4.55c.79,0,1.43-.3,1.43-1.4s-.64-1.4-1.43-1.4"/><path class="cls-1" d="M63.6,41.92h4.71a.41.41,0,0,0,0-.81h-5a1.09,1.09,0,0,0-1.14,1.15v2.48a1.1,1.1,0,0,0,1.14,1.15h4.21a1.1,1.1,0,0,0,1.14-1.15v-1h0A.78.78,0,0,0,67.9,43H65.3a.41.41,0,0,0,0,.81h2.12a.33.33,0,0,1,.34.34v.45a.4.4,0,0,1-.43.43H63.6a.4.4,0,0,1-.43-.43V42.35a.41.41,0,0,1,.43-.43"/><path class="cls-1" d="M50.8,45H46.74a.41.41,0,0,1-.43-.43V41.55a.54.54,0,0,0-.54-.53.54.54,0,0,0-.54.53h0v3.19a1.1,1.1,0,0,0,1.15,1.15H50.8a.43.43,0,0,0,.43-.43A.43.43,0,0,0,50.8,45"/><path class="cls-2" d="M39.86,10.7H53.3a1.16,1.16,0,1,0,0-2.32H39.18a3.13,3.13,0,0,0-3.27,3.27v7.09h0A3.13,3.13,0,0,0,39.18,22H53.3a1.16,1.16,0,1,0,0-2.32H39.86a1.16,1.16,0,0,1-1.22-1.23V16.36H51.12a1.16,1.16,0,1,0,0-2.32H38.64V11.93a1.16,1.16,0,0,1,1.22-1.23"/><path class="cls-2" d="M39.86,48.33H53.3a1.16,1.16,0,1,0,0-2.32H39.18a3.13,3.13,0,0,0-3.27,3.28v7.09h0a3.13,3.13,0,0,0,3.27,3.27H53.3a1.16,1.16,0,0,0,0-2.32H39.86a1.16,1.16,0,0,1-1.22-1.22V54H51.12a1.16,1.16,0,1,0,0-2.32H38.64V49.56a1.16,1.16,0,0,1,1.22-1.23"/><path class="cls-2" d="M11.83,26.51V40a1.16,1.16,0,1,0,2.32,0V25.83a3.12,3.12,0,0,0-3.27-3.27H3.79A3.13,3.13,0,0,0,.51,25.83h0V40a1.16,1.16,0,0,0,2.32,0V26.51a1.17,1.17,0,0,1,1.23-1.22H6.17V37.77a1.16,1.16,0,1,0,2.32,0V25.29h2.12a1.16,1.16,0,0,1,1.22,1.22"/><path class="cls-2" d="M133.23,26.51V40a1.16,1.16,0,1,0,2.32,0V25.83a3.13,3.13,0,0,0-3.27-3.27h-7.1a3.13,3.13,0,0,0-3.27,3.27h0V40a1.16,1.16,0,1,0,2.32,0V26.51a1.16,1.16,0,0,1,1.23-1.22h2.11V37.77a1.16,1.16,0,0,0,2.32,0V25.29H132a1.16,1.16,0,0,1,1.23,1.22"/><path class="cls-3" d="M32.56,22.4a1.23,1.23,0,0,0-1.66-.51l-14,7.45V23.11a1.37,1.37,0,0,0-2.73,0V34.57a1.37,1.37,0,0,0,2.73,0V32.13l4.6-2.45,9.33,6a1.22,1.22,0,1,0,1.34-2L24,28.36l8.09-4.3a1.23,1.23,0,0,0,.51-1.66"/><path class="cls-3" d="M39.86,24.34H53.3a1.16,1.16,0,1,0,0-2.32H39.18a3.13,3.13,0,0,0-3.27,3.27v7.1h0a3.13,3.13,0,0,0,3.27,3.27H53.3a1.16,1.16,0,1,0,0-2.32H39.86a1.16,1.16,0,0,1-1.22-1.23V30H51.12a1.16,1.16,0,1,0,0-2.32H38.64V25.57a1.16,1.16,0,0,1,1.22-1.23"/><path class="cls-3" d="M121.91,23.11h0a1.37,1.37,0,0,0-2.73,0v4.77H107a1.16,1.16,0,0,1-1.23-1.22h0V23.11a1.36,1.36,0,0,0-2.72,0v3.82a3.12,3.12,0,0,0,3.27,3.27h12.82v1.92A1.16,1.16,0,0,1,118,33.34H105.34a1.16,1.16,0,0,0,0,2.32h13.3a3.13,3.13,0,0,0,3.27-3.27h0Z"/><path class="cls-3" d="M76.76,26.11c0-3.21-1.83-4.09-4.09-4.09H59.3a1.36,1.36,0,0,0-1.36,1.36V34.57a1.37,1.37,0,0,0,2.73,0V24.34H72.26A1.55,1.55,0,0,1,74,26.11a1.55,1.55,0,0,1-1.76,1.77H64.18A1.16,1.16,0,0,0,63,29a1.18,1.18,0,0,0,.65,1.05h0l11,5.7a1.23,1.23,0,1,0,1.14-2.17L68.7,30.11l4,.09c2.26,0,4.09-.87,4.09-4.09"/><path class="cls-3" d="M99.47,26.11c0-3.21-1.83-4.09-4.09-4.09H82a1.36,1.36,0,0,0-1.36,1.36V34.57a1.37,1.37,0,0,0,2.73,0V24.34H95a1.56,1.56,0,0,1,1.78,1.77A1.56,1.56,0,0,1,95,27.88H86.89a1.16,1.16,0,0,0-.5,2.21h0l11,5.7a1.22,1.22,0,0,0,1.13-2.17l-7.13-3.51,4,.09c2.26,0,4.09-.87,4.09-4.09"/></svg>